<svg xmlns="http://www.w3.org/2000/svg" xmlns:xlink="http://www.w3.org/1999/xlink" width="1500" height="1020" viewBox="0 0 1500 1020" font-family="'Courier New', 'JetBrains Mono', monospace">
  <defs>
    <!-- Ground symbol -->
    <g id="gnd">
      <line x1="0" y1="0" x2="0" y2="8" stroke="#e0e0dc" stroke-width="1.5"/>
      <line x1="-8" y1="8" x2="8" y2="8" stroke="#e0e0dc" stroke-width="1.5"/>
      <line x1="-5" y1="12" x2="5" y2="12" stroke="#e0e0dc" stroke-width="1.5"/>
      <line x1="-2" y1="16" x2="2" y2="16" stroke="#e0e0dc" stroke-width="1.5"/>
    </g>
    <!-- VCC symbol -->
    <g id="vcc">
      <line x1="0" y1="0" x2="0" y2="-10" stroke="#c00" stroke-width="1.5"/>
      <line x1="-6" y1="-10" x2="6" y2="-10" stroke="#c00" stroke-width="1.5"/>
    </g>
    <!-- Junction dot -->
    <circle id="jct" r="3" fill="#e0e0dc"/>
  </defs>

  <!-- Background -->
  <rect width="1500" height="1020" fill="#1c1c1a"/>
  <!-- Border -->
  <rect x="10" y="10" width="1480" height="1000" fill="none" stroke="#b0b0ac" stroke-width="2"/>
  <rect x="14" y="14" width="1472" height="992" fill="none" stroke="#6a6a66" stroke-width="0.5"/>

  <!-- Title block -->
  <rect x="1050" y="940" width="436" height="56" fill="none" stroke="#b0b0ac" stroke-width="1.5"/>
  <text x="1268" y="960" text-anchor="middle" fill="#e0e0dc" font-size="14" font-weight="700">Field Monitor — Schematic Diagram (Dark)</text>
  <text x="1268" y="978" text-anchor="middle" fill="#c0c0bc" font-size="10">ESP8266 SparkFun Blynk Board · INF 148 Final Project</text>
  <text x="1268" y="992" text-anchor="middle" fill="#a0a09c" font-size="9">2026-03-15 · Not to scale</text>

  <!-- ============================== -->
  <!--  POWER RAILS                    -->
  <!-- ============================== -->
  <!-- 3.3V rail -->
  <line x1="60" y1="60" x2="1400" y2="60" stroke="#c00" stroke-width="2"/>
  <text x="50" y="64" text-anchor="end" fill="#c00" font-size="12" font-weight="700">3V3</text>
  <use xlink:href="#vcc" x="100" y="60"/>
  <use xlink:href="#vcc" x="400" y="60"/>
  <use xlink:href="#vcc" x="700" y="60"/>
  <use xlink:href="#vcc" x="1100" y="60"/>

  <!-- 5V rail -->
  <line x1="60" y1="90" x2="500" y2="90" stroke="#d60" stroke-width="1.5" stroke-dasharray="8,4"/>
  <text x="50" y="94" text-anchor="end" fill="#d60" font-size="12" font-weight="700">5V</text>
  <text x="510" y="94" fill="#d60" font-size="9">(VIN → MQ2 heater only)</text>

  <!-- GND rail -->
  <line x1="60" y1="900" x2="1400" y2="900" stroke="#e0e0dc" stroke-width="2"/>
  <text x="50" y="904" text-anchor="end" fill="#e0e0dc" font-size="12" font-weight="700">GND</text>
  <use xlink:href="#gnd" x="100" y="900"/>
  <use xlink:href="#gnd" x="400" y="900"/>
  <use xlink:href="#gnd" x="700" y="900"/>
  <use xlink:href="#gnd" x="1100" y="900"/>

  <!-- ============================== -->
  <!--  U1: ESP8266 BLYNK BOARD        -->
  <!-- ============================== -->
  <rect x="620" y="360" width="220" height="260" rx="0" fill="#2a2a26" stroke="#e0e0dc" stroke-width="2"/>
  <text x="730" y="385" text-anchor="middle" fill="#e0e0dc" font-size="13" font-weight="700">U1</text>
  <text x="730" y="400" text-anchor="middle" fill="#e0e0dc" font-size="11">ESP8266</text>
  <text x="730" y="414" text-anchor="middle" fill="#c0c0bc" font-size="9">SparkFun Blynk Board</text>

  <!-- Left pins -->
  <line x1="580" y1="440" x2="620" y2="440" stroke="#e0e0dc" stroke-width="1.5"/>
  <text x="625" y="444" fill="#e0e0dc" font-size="10">3V3</text>
  <line x1="580" y1="470" x2="620" y2="470" stroke="#e0e0dc" stroke-width="1.5"/>
  <text x="625" y="474" fill="#e0e0dc" font-size="10">GND</text>
  <line x1="580" y1="500" x2="620" y2="500" stroke="#e0e0dc" stroke-width="1.5"/>
  <text x="625" y="504" fill="#e0e0dc" font-size="10">SDA (D2)</text>
  <line x1="580" y1="530" x2="620" y2="530" stroke="#e0e0dc" stroke-width="1.5"/>
  <text x="625" y="534" fill="#e0e0dc" font-size="10">SCL (D1)</text>
  <line x1="580" y1="560" x2="620" y2="560" stroke="#e0e0dc" stroke-width="1.5"/>
  <text x="625" y="564" fill="#e0e0dc" font-size="10">A0</text>
  <line x1="580" y1="590" x2="620" y2="590" stroke="#e0e0dc" stroke-width="1.5"/>
  <text x="625" y="594" fill="#e0e0dc" font-size="10">VIN (5V)</text>

  <!-- Right pins -->
  <line x1="840" y1="440" x2="880" y2="440" stroke="#e0e0dc" stroke-width="1.5"/>
  <text x="835" y="444" text-anchor="end" fill="#e0e0dc" font-size="10">D6 (GPIO12)</text>
  <line x1="840" y1="470" x2="880" y2="470" stroke="#e0e0dc" stroke-width="1.5"/>
  <text x="835" y="474" text-anchor="end" fill="#e0e0dc" font-size="10">D2 (GPIO4)</text>
  <line x1="840" y1="530" x2="880" y2="530" stroke="#e0e0dc" stroke-width="1.5"/>
  <text x="835" y="534" text-anchor="end" fill="#e0e0dc" font-size="10">D3 (GPIO0)</text>
  <line x1="840" y1="560" x2="880" y2="560" stroke="#e0e0dc" stroke-width="1.5"/>
  <text x="835" y="564" text-anchor="end" fill="#e0e0dc" font-size="10">TX</text>
  <line x1="840" y1="590" x2="880" y2="590" stroke="#e0e0dc" stroke-width="1.5"/>
  <text x="835" y="594" text-anchor="end" fill="#e0e0dc" font-size="10">RX</text>

  <!-- Power connections to MCU -->
  <line x1="580" y1="440" x2="560" y2="440" stroke="#c00" stroke-width="1.2"/>
  <line x1="560" y1="440" x2="560" y2="60" stroke="#c00" stroke-width="1.2"/>
  <use xlink:href="#jct" x="560" y="60"/>

  <line x1="580" y1="470" x2="540" y2="470" stroke="#e0e0dc" stroke-width="1.2"/>
  <line x1="540" y1="470" x2="540" y2="900" stroke="#e0e0dc" stroke-width="1.2"/>
  <use xlink:href="#jct" x="540" y="900"/>

  <line x1="580" y1="590" x2="520" y2="590" stroke="#d60" stroke-width="1.2"/>
  <line x1="520" y1="590" x2="520" y2="90" stroke="#d60" stroke-width="1.2"/>
  <use xlink:href="#jct" x="520" y="90"/>

  <!-- ============================== -->
  <!--  I²C BUS (SDA/SCL)             -->
  <!-- ============================== -->
  <!-- SDA bus line -->
  <line x1="580" y1="500" x2="440" y2="500" stroke="#04a" stroke-width="1.5"/>
  <line x1="440" y1="160" x2="440" y2="830" stroke="#04a" stroke-width="1.5"/>
  <use xlink:href="#jct" x="440" y="500"/>
  <text x="448" y="155" fill="#04a" font-size="10" font-weight="700">SDA</text>

  <!-- SCL bus line -->
  <line x1="580" y1="530" x2="420" y2="530" stroke="#a60" stroke-width="1.5"/>
  <line x1="420" y1="160" x2="420" y2="830" stroke="#a60" stroke-width="1.5"/>
  <use xlink:href="#jct" x="420" y="530"/>
  <text x="408" y="155" text-anchor="end" fill="#a60" font-size="10" font-weight="700">SCL</text>

  <!-- I2C pull-up resistors -->
  <!-- R1: SDA pull-up to 3.3V -->
  <line x1="440" y1="160" x2="440" y2="130" stroke="#04a" stroke-width="1"/>
  <rect x="435" y="100" width="10" height="30" fill="none" stroke="#e0e0dc" stroke-width="1.2"/>
  <line x1="440" y1="100" x2="440" y2="60" stroke="#c00" stroke-width="1"/>
  <use xlink:href="#jct" x="440" y="60"/>
  <text x="452" y="118" fill="#c0c0bc" font-size="9">R1 4.7K</text>

  <!-- R2: SCL pull-up to 3.3V -->
  <line x1="420" y1="160" x2="420" y2="130" stroke="#a60" stroke-width="1"/>
  <rect x="415" y="100" width="10" height="30" fill="none" stroke="#e0e0dc" stroke-width="1.2"/>
  <line x1="420" y1="100" x2="420" y2="60" stroke="#c00" stroke-width="1"/>
  <use xlink:href="#jct" x="420" y="60"/>
  <text x="408" y="118" text-anchor="end" fill="#c0c0bc" font-size="9">R2 4.7K</text>

  <!-- ============================== -->
  <!--  U2: Si7021 (onboard)           -->
  <!-- ============================== -->
  <rect x="260" y="170" width="140" height="60" fill="#2a2a26" stroke="#e0e0dc" stroke-width="1.5"/>
  <text x="330" y="190" text-anchor="middle" fill="#e0e0dc" font-size="11" font-weight="700">U2 Si7021</text>
  <text x="330" y="204" text-anchor="middle" fill="#c0c0bc" font-size="9">Temp/Hum · 0x40</text>
  <text x="330" y="218" text-anchor="middle" fill="#a0a09c" font-size="8">ONBOARD</text>
  <!-- SDA -->
  <line x1="400" y1="185" x2="440" y2="185" stroke="#04a" stroke-width="1.2"/>
  <use xlink:href="#jct" x="440" y="185"/>
  <text x="395" y="183" text-anchor="end" fill="#04a" font-size="8">SDA</text>
  <!-- SCL -->
  <line x1="400" y1="210" x2="420" y2="210" stroke="#a60" stroke-width="1.2"/>
  <use xlink:href="#jct" x="420" y="210"/>
  <text x="395" y="208" text-anchor="end" fill="#a60" font-size="8">SCL</text>
  <!-- VCC/GND stubs -->
  <line x1="280" y1="170" x2="280" y2="60" stroke="#c00" stroke-width="1"/>
  <use xlink:href="#jct" x="280" y="60"/>
  <line x1="310" y1="230" x2="310" y2="250" stroke="#e0e0dc" stroke-width="1"/>
  <use xlink:href="#gnd" x="310" y="250"/>

  <!-- ============================== -->
  <!--  U3: ADS1115 #1 (0x48)          -->
  <!-- ============================== -->
  <rect x="140" y="310" width="160" height="140" fill="#2a2a26" stroke="#e0e0dc" stroke-width="1.5"/>
  <text x="220" y="332" text-anchor="middle" fill="#e0e0dc" font-size="11" font-weight="700">U3 ADS1115 #1</text>
  <text x="220" y="346" text-anchor="middle" fill="#c0c0bc" font-size="9">16-bit ADC · 0x48</text>
  <!-- I2C connection -->
  <line x1="300" y1="365" x2="440" y2="365" stroke="#04a" stroke-width="1.2"/>
  <use xlink:href="#jct" x="440" y="365"/>
  <text x="295" y="363" text-anchor="end" fill="#04a" font-size="8">SDA</text>
  <line x1="300" y1="385" x2="420" y2="385" stroke="#a60" stroke-width="1.2"/>
  <use xlink:href="#jct" x="420" y="385"/>
  <text x="295" y="383" text-anchor="end" fill="#a60" font-size="8">SCL</text>
  <!-- VCC/GND -->
  <line x1="200" y1="310" x2="200" y2="60" stroke="#c00" stroke-width="1"/>
  <use xlink:href="#jct" x="200" y="60"/>
  <line x1="240" y1="450" x2="240" y2="468" stroke="#e0e0dc" stroke-width="1"/>
  <use xlink:href="#gnd" x="240" y="468"/>
  <!-- ADDR=GND -->
  <line x1="180" y1="450" x2="180" y2="468" stroke="#e0e0dc" stroke-width="1"/>
  <use xlink:href="#gnd" x="180" y="468"/>
  <text x="174" y="445" fill="#a0a09c" font-size="8">ADDR</text>

  <!-- Analog input pins (left side) -->
  <line x1="100" y1="365" x2="140" y2="365" stroke="#e0e0dc" stroke-width="1.2"/>
  <text x="145" y="369" fill="#e0e0dc" font-size="9">A0</text>
  <line x1="100" y1="385" x2="140" y2="385" stroke="#e0e0dc" stroke-width="1.2"/>
  <text x="145" y="389" fill="#e0e0dc" font-size="9">A1</text>
  <line x1="100" y1="405" x2="140" y2="405" stroke="#e0e0dc" stroke-width="1.2"/>
  <text x="145" y="409" fill="#e0e0dc" font-size="9">A2</text>
  <line x1="100" y1="425" x2="140" y2="425" stroke="#e0e0dc" stroke-width="1.2"/>
  <text x="145" y="429" fill="#e0e0dc" font-size="9">A3</text>

  <!-- ============================== -->
  <!--  SENSORS → ADS1115 #1           -->
  <!-- ============================== -->
  <!-- Soil Moisture sensor -->
  <rect x="28" y="340" width="60" height="30" fill="#f8f0e8" stroke="#e0e0dc" stroke-width="1"/>
  <text x="58" y="359" text-anchor="middle" fill="#e0e0dc" font-size="8" font-weight="600">SOIL</text>
  <line x1="88" y1="355" x2="100" y2="355" stroke="#e0e0dc" stroke-width="1"/>
  <line x1="100" y1="355" x2="100" y2="365" stroke="#e0e0dc" stroke-width="1"/>

  <!-- Water Level sensor -->
  <rect x="28" y="378" width="60" height="30" fill="#f0f0f8" stroke="#e0e0dc" stroke-width="1"/>
  <text x="58" y="397" text-anchor="middle" fill="#e0e0dc" font-size="8" font-weight="600">WATER</text>
  <line x1="88" y1="393" x2="100" y2="393" stroke="#e0e0dc" stroke-width="1"/>
  <line x1="100" y1="393" x2="100" y2="385" stroke="#e0e0dc" stroke-width="1"/>

  <!-- Flame sensor -->
  <rect x="28" y="416" width="60" height="30" fill="#f8f0f0" stroke="#e0e0dc" stroke-width="1"/>
  <text x="58" y="435" text-anchor="middle" fill="#e0e0dc" font-size="8" font-weight="600">FLAME</text>
  <line x1="88" y1="431" x2="100" y2="431" stroke="#e0e0dc" stroke-width="1"/>
  <line x1="100" y1="431" x2="100" y2="405" stroke="#e0e0dc" stroke-width="1"/>

  <!-- Photocell + divider -->
  <rect x="28" y="454" width="60" height="30" fill="#f8f8e8" stroke="#e0e0dc" stroke-width="1"/>
  <text x="58" y="473" text-anchor="middle" fill="#e0e0dc" font-size="8" font-weight="600">PHOTO</text>
  <line x1="88" y1="469" x2="100" y2="469" stroke="#e0e0dc" stroke-width="1"/>
  <line x1="100" y1="469" x2="100" y2="425" stroke="#e0e0dc" stroke-width="1"/>
  <!-- R3: 10K pull-down for photocell divider -->
  <line x1="100" y1="469" x2="100" y2="490" stroke="#e0e0dc" stroke-width="1"/>
  <use xlink:href="#jct" x="100" y="469"/>
  <rect x="95" y="490" width="10" height="24" fill="none" stroke="#e0e0dc" stroke-width="1"/>
  <line x1="100" y1="514" x2="100" y2="528" stroke="#e0e0dc" stroke-width="1"/>
  <use xlink:href="#gnd" x="100" y="528"/>
  <text x="112" y="506" fill="#c0c0bc" font-size="8">R3 10K</text>

  <!-- Sensor GND connections -->
  <line x1="58" y1="370" x2="58" y2="376" stroke="#e0e0dc" stroke-width="0.8"/>
  <line x1="58" y1="408" x2="58" y2="414" stroke="#e0e0dc" stroke-width="0.8"/>
  <line x1="58" y1="446" x2="58" y2="452" stroke="#e0e0dc" stroke-width="0.8"/>

  <!-- Sensor VCC connections (3.3V taps) -->
  <line x1="38" y1="340" x2="38" y2="60" stroke="#c00" stroke-width="0.8"/>
  <use xlink:href="#jct" x="38" y="60"/>

  <!-- ============================== -->
  <!--  U4: ADS1115 #2 (0x49)          -->
  <!-- ============================== -->
  <rect x="140" y="550" width="160" height="100" fill="#2a2a26" stroke="#e0e0dc" stroke-width="1.5"/>
  <text x="220" y="572" text-anchor="middle" fill="#e0e0dc" font-size="11" font-weight="700">U4 ADS1115 #2</text>
  <text x="220" y="586" text-anchor="middle" fill="#c0c0bc" font-size="9">16-bit ADC · 0x49</text>
  <!-- I2C -->
  <line x1="300" y1="610" x2="440" y2="610" stroke="#04a" stroke-width="1.2"/>
  <use xlink:href="#jct" x="440" y="610"/>
  <text x="295" y="608" text-anchor="end" fill="#04a" font-size="8">SDA</text>
  <line x1="300" y1="630" x2="420" y2="630" stroke="#a60" stroke-width="1.2"/>
  <use xlink:href="#jct" x="420" y="630"/>
  <text x="295" y="628" text-anchor="end" fill="#a60" font-size="8">SCL</text>
  <!-- VCC/GND -->
  <line x1="200" y1="550" x2="200" y2="60" stroke="#c00" stroke-width="1"/>
  <use xlink:href="#jct" x="200" y="60"/>
  <line x1="240" y1="650" x2="240" y2="668" stroke="#e0e0dc" stroke-width="1"/>
  <use xlink:href="#gnd" x="240" y="668"/>
  <!-- ADDR=VDD (0x49) -->
  <line x1="180" y1="550" x2="180" y2="540" stroke="#c00" stroke-width="1"/>
  <text x="174" y="536" fill="#a0a09c" font-size="8">ADDR</text>

  <!-- MQ2 Gas → ADS2 A0 -->
  <line x1="100" y1="610" x2="140" y2="610" stroke="#e0e0dc" stroke-width="1.2"/>
  <text x="145" y="614" fill="#e0e0dc" font-size="9">A0</text>
  <rect x="28" y="594" width="60" height="32" fill="#f0f0f8" stroke="#e0e0dc" stroke-width="1"/>
  <text x="58" y="609" text-anchor="middle" fill="#e0e0dc" font-size="8" font-weight="600">MQ-2</text>
  <text x="58" y="619" text-anchor="middle" fill="#a0a09c" font-size="7">AO pin</text>
  <line x1="88" y1="610" x2="100" y2="610" stroke="#e0e0dc" stroke-width="1"/>
  <!-- MQ2 heater → 5V -->
  <line x1="38" y1="594" x2="38" y2="90" stroke="#d60" stroke-width="1"/>
  <use xlink:href="#jct" x="38" y="90"/>
  <text x="44" y="588" fill="#d60" font-size="7">VH (5V)</text>
  <!-- MQ2 GND -->
  <line x1="58" y1="626" x2="58" y2="644" stroke="#e0e0dc" stroke-width="1"/>
  <use xlink:href="#gnd" x="58" y="644"/>

  <!-- ============================== -->
  <!--  U5: SAM-M8Q GPS (0x42)         -->
  <!-- ============================== -->
  <rect x="260" y="710" width="140" height="60" fill="#2a2a26" stroke="#e0e0dc" stroke-width="1.5"/>
  <text x="330" y="732" text-anchor="middle" fill="#e0e0dc" font-size="11" font-weight="700">U5 SAM-M8Q</text>
  <text x="330" y="746" text-anchor="middle" fill="#c0c0bc" font-size="9">GPS · 0x42</text>
  <text x="330" y="758" text-anchor="middle" fill="#a0a09c" font-size="8">Qwiic I2C</text>
  <line x1="400" y1="725" x2="440" y2="725" stroke="#04a" stroke-width="1.2"/>
  <use xlink:href="#jct" x="440" y="725"/>
  <text x="395" y="723" text-anchor="end" fill="#04a" font-size="8">SDA</text>
  <line x1="400" y1="750" x2="420" y2="750" stroke="#a60" stroke-width="1.2"/>
  <use xlink:href="#jct" x="420" y="750"/>
  <text x="395" y="748" text-anchor="end" fill="#a60" font-size="8">SCL</text>
  <line x1="280" y1="710" x2="280" y2="60" stroke="#c00" stroke-width="1"/>
  <use xlink:href="#jct" x="280" y="60"/>
  <line x1="310" y1="770" x2="310" y2="788" stroke="#e0e0dc" stroke-width="1"/>
  <use xlink:href="#gnd" x="310" y="788"/>


  <!-- ============================== -->
  <!--  GPIO RIGHT SIDE                -->
  <!-- ============================== -->

  <!-- Sound Detector → A0 -->
  <rect x="920" y="180" width="160" height="60" fill="#2a2a26" stroke="#e0e0dc" stroke-width="1.5"/>
  <text x="1000" y="202" text-anchor="middle" fill="#e0e0dc" font-size="11" font-weight="700">Sound Detector</text>
  <text x="1000" y="218" text-anchor="middle" fill="#c0c0bc" font-size="9">SEN-12642 · Envelope</text>
  <text x="1000" y="232" text-anchor="middle" fill="#a0a09c" font-size="8">→ Board ADC A0</text>
  <!-- Wire: Sound ENV → ESP A0 -->
  <line x1="920" y1="205" x2="900" y2="205" stroke="#e0e0dc" stroke-width="1.2"/>
  <text x="913" y="200" fill="#e0e0dc" font-size="8">ENV</text>
  <line x1="900" y1="205" x2="900" y2="560" stroke="#e0e0dc" stroke-width="1.2"/>
  <line x1="880" y1="560" x2="900" y2="560" stroke="#e0e0dc" stroke-width="1.2"/>
  <!-- VCC/GND -->
  <line x1="1000" y1="180" x2="1000" y2="60" stroke="#c00" stroke-width="1"/>
  <use xlink:href="#jct" x="1000" y="60"/>
  <line x1="1040" y1="240" x2="1040" y2="258" stroke="#e0e0dc" stroke-width="1"/>
  <use xlink:href="#gnd" x="1040" y="258"/>

  <!-- HC-SR501 PIR → GPIO12 (D6) -->
  <rect x="1020" y="400" width="160" height="60" fill="#2a2a26" stroke="#e0e0dc" stroke-width="1.5"/>
  <text x="1100" y="420" text-anchor="middle" fill="#e0e0dc" font-size="11" font-weight="700">HC-SR501 PIR</text>
  <text x="1100" y="436" text-anchor="middle" fill="#c0c0bc" font-size="9">Motion sensor</text>
  <text x="1100" y="450" text-anchor="middle" fill="#a0a09c" font-size="8">→ GPIO12 (D6)</text>
  <line x1="1020" y1="430" x2="980" y2="430" stroke="#e0e0dc" stroke-width="1.2"/>
  <text x="1013" y="425" fill="#e0e0dc" font-size="8">OUT</text>
  <line x1="980" y1="430" x2="980" y2="440" stroke="#e0e0dc" stroke-width="1.2"/>
  <line x1="880" y1="440" x2="980" y2="440" stroke="#e0e0dc" stroke-width="1.2"/>
  <!-- VCC/GND -->
  <line x1="1100" y1="400" x2="1100" y2="60" stroke="#c00" stroke-width="1"/>
  <use xlink:href="#jct" x="1100" y="60"/>
  <line x1="1140" y1="460" x2="1140" y2="478" stroke="#e0e0dc" stroke-width="1"/>
  <use xlink:href="#gnd" x="1140" y="478"/>

  <!-- WS2812 RGB LED (onboard, GPIO4/D2) -->
  <rect x="1020" y="640" width="160" height="50" fill="#2a2a26" stroke="#e0e0dc" stroke-width="1.5"/>
  <text x="1100" y="660" text-anchor="middle" fill="#e0e0dc" font-size="11" font-weight="700">WS2812 RGB</text>
  <text x="1100" y="676" text-anchor="middle" fill="#c0c0bc" font-size="9">Onboard · GPIO4 (D2)</text>
  <text x="1100" y="686" text-anchor="middle" fill="#a0a09c" font-size="8">ONBOARD</text>
  <line x1="1020" y1="660" x2="940" y2="660" stroke="#e0e0dc" stroke-width="1.2"/>
  <text x="1013" y="655" fill="#e0e0dc" font-size="8">DIN</text>
  <line x1="940" y1="500" x2="940" y2="660" stroke="#e0e0dc" stroke-width="1.2"/>
  <line x1="880" y1="500" x2="940" y2="500" stroke="#e0e0dc" stroke-width="1.2"/>

  <!-- Button (onboard, GPIO0/D3) -->
  <rect x="1020" y="720" width="160" height="40" fill="#2a2a26" stroke="#e0e0dc" stroke-width="1"/>
  <text x="1100" y="742" text-anchor="middle" fill="#e0e0dc" font-size="10" font-weight="700">Button (GPIO0)</text>
  <text x="1100" y="754" text-anchor="middle" fill="#a0a09c" font-size="8">ONBOARD · ACTIVE LOW</text>
  <line x1="1020" y1="740" x2="920" y2="740" stroke="#e0e0dc" stroke-width="1"/>
  <line x1="920" y1="530" x2="920" y2="740" stroke="#e0e0dc" stroke-width="1"/>
  <line x1="880" y1="530" x2="920" y2="530" stroke="#e0e0dc" stroke-width="1"/>

  <!-- ============================== -->
  <!--  NET LABELS                     -->
  <!-- ============================== -->
  <rect x="455" y="494" width="36" height="14" fill="#e8e8ff" stroke="#04a" stroke-width="0.8" rx="2"/>
  <text x="473" y="505" text-anchor="middle" fill="#04a" font-size="8" font-weight="700">SDA</text>
  <rect x="455" y="524" width="36" height="14" fill="#fff4e8" stroke="#a60" stroke-width="0.8" rx="2"/>
  <text x="473" y="535" text-anchor="middle" fill="#a60" font-size="8" font-weight="700">SCL</text>

  <!-- ============================== -->
  <!--  NOTES                          -->
  <!-- ============================== -->
  <rect x="28" y="700" width="230" height="230" fill="none" stroke="#4a4a48" stroke-width="1" rx="4"/>
  <text x="40" y="720" fill="#e0e0dc" font-size="10" font-weight="700">Notes</text>
  <text x="40" y="738" fill="#b8b8b4" font-size="9">" I²C: 4.7K pull-ups on SDA/SCL</text>
  <text x="40" y="754" fill="#b8b8b4" font-size="9">" All sensors 3.3V except MQ-2</text>
  <text x="40" y="770" fill="#b8b8b4" font-size="9">  heater which requires 5V (VIN)</text>
  <text x="40" y="786" fill="#b8b8b4" font-size="9">" ADS1115 #1 ADDR=GND = 0x48</text>
  <text x="40" y="802" fill="#b8b8b4" font-size="9">" ADS1115 #2 ADDR=VDD = 0x49</text>
  <text x="40" y="818" fill="#b8b8b4" font-size="9">" Photocell: 10K divider to GND</text>
  <text x="40" y="834" fill="#b8b8b4" font-size="9">" Qwiic cables: red=3V3, black=GND, blue=SDA, yellow=SCL</text>
  <text x="40" y="850" fill="#b8b8b4" font-size="9">" Si7021, RGB, Button onboard</text>
  <text x="40" y="866" fill="#b8b8b4" font-size="9">" Sound: envelope out → A0</text>
  <text x="40" y="882" fill="#b8b8b4" font-size="9">" Qwiic cables: R=3V3 K=GND</text>
  <text x="40" y="898" fill="#b8b8b4" font-size="9">  B=SDA Y=SCL</text>
  <text x="40" y="918" fill="#c00" font-size="9" stroke-dasharray="4,3">- - - Dashed = not detected</text>

  <!-- ============================== -->
  <!--  COMPONENT COUNT                -->
  <!-- ============================== -->
  <rect x="1050" y="880" width="150" height="56" fill="none" stroke="#4a4a48" stroke-width="1"/>
  <text x="1125" y="900" text-anchor="middle" fill="#b8b8b4" font-size="9">U1–U5 · R1–R3</text>
  <text x="1125" y="916" text-anchor="middle" fill="#b8b8b4" font-size="9">5 sensors · 2 ADCs</text>
  <text x="1125" y="932" text-anchor="middle" fill="#b8b8b4" font-size="9">1 GPS · 1 PIR · 1 RGB</text>
</svg>
